<?xml version="1.0" encoding="iso-8859-1"?>
<!-- Generator: Adobe Illustrator 19.0.0, SVG Export Plug-In . SVG Version: 6.00 Build 0)  -->
<svg version="1.1" id="Capa_1" xmlns="http://www.w3.org/2000/svg" xmlns:xlink="http://www.w3.org/1999/xlink" x="0px" y="0px"
	 viewBox="0 0 366.253 366.253" style="enable-background:new 0 0 366.253 366.253;" xml:space="preserve">
<g>
	<g>
		<path d="M361.839,299.676v0.16l-13.4-13.4c-3.341-3.277-7.933-4.954-12.6-4.6c-2.745,0.219-5.343,1.329-7.4,3.16l-50.76-50.76
			l9.4-9.6c5.885-5.888,5.885-15.432,0-21.32l-9.64-9.64c-5.966-5.694-15.354-5.694-21.32,0l-10.04,10.16L72.599,18.916
			c-0.584-0.632-1.332-1.089-2.16-1.32L5.759,0.236c-0.898-0.285-1.862-0.285-2.76,0h-0.36c-1.046,0.406-1.874,1.234-2.28,2.28v0.36
			c-0.197,0.497-0.305,1.025-0.32,1.56c-0.052,0.398-0.052,0.802,0,1.2l17.36,64.64c0.231,0.828,0.688,1.576,1.32,2.16
			l185.04,173.84l-10.24,10.24c-5.858,5.884-5.858,15.396,0,21.28l9.56,9.64c5.884,5.858,15.396,5.858,21.28,0l9.6-9.6l50.8,50.8
			c-1.748,2.019-2.813,4.539-3.04,7.2c-0.386,4.671,1.295,9.276,4.6,12.6l13.4,13.4c5.884,5.858,15.396,5.858,21.28,0l40.84-40.84
			C367.724,315.108,367.724,305.565,361.839,299.676z M66.719,26.236l172.8,184.24l-11.32,11.32l-208-208L66.719,26.236z
			 M26.039,66.916l-12.52-46.68l208,208l-11.2,11.6L26.039,66.916z M217.919,280.876c-2.24,2.133-5.76,2.133-8,0l-9.64-9.64
			c-2.113-2.248-2.113-5.752,0-8l62.8-62.8c2.248-2.113,5.752-2.113,8,0l9.64,9.64c2.133,2.24,2.133,5.76,0,8L217.919,280.876z
			 M240.599,271.276l30.52-30.4l51.76,51.64l-12.44,18.04l-18.08,12.48L240.599,271.276z M355.279,314.396l-0.16,0.32l-40.68,40.72
			c-2.271,2.056-5.729,2.056-8,0l-13.4-13.4c-1.341-1.387-2.037-3.274-1.92-5.2c0.031-0.966,0.503-1.865,1.28-2.44l24-16.68
			c0.47-0.323,0.877-0.73,1.2-1.2l15.12-21.92l1.52-2.24c0.575-0.777,1.474-1.249,2.44-1.28c1.926-0.117,3.813,0.579,5.2,1.92
			l13.4,13.4C357.392,308.644,357.392,312.148,355.279,314.396z"/>
	</g>
</g>
<g>
</g>
<g>
</g>
<g>
</g>
<g>
</g>
<g>
</g>
<g>
</g>
<g>
</g>
<g>
</g>
<g>
</g>
<g>
</g>
<g>
</g>
<g>
</g>
<g>
</g>
<g>
</g>
<g>
</g>
</svg>
